<?xml version="1.0" encoding="UTF-8" standalone="no"?>
<!DOCTYPE svg PUBLIC "-//W3C//DTD SVG 1.1//EN" "http://www.w3.org/Graphics/SVG/1.1/DTD/svg11.dtd">
<svg width="100%" height="100%" viewBox="0 0 1411 268" version="1.1" xmlns="http://www.w3.org/2000/svg" xmlns:xlink="http://www.w3.org/1999/xlink" xml:space="preserve" xmlns:serif="http://www.serif.com/" style="color: white; fill-rule:evenodd;clip-rule:evenodd;stroke-linejoin:round;stroke-miterlimit:2;">
    <g transform="matrix(1,0,0,1,-14.5347,-10.6968)">
        <g transform="matrix(0.740551,0,0,0.804331,-333.349,-258.652)">


            <g transform="matrix(1,0,0,0.96,0,15.1987)" style="fill: white;">
                <text x="469.763px" y="379.967px" style="fill: white; font-family:'CourierNewPSMT', 'Courier New', monospace;font-size:54.167px;">▄<tspan x="502.052px 534.34px 566.629px 598.918px 631.206px 663.495px 695.783px 728.072px 760.361px 792.649px 824.938px 857.227px 889.515px 921.804px 954.092px 986.381px 1018.67px 1050.96px 1083.25px 1115.54px 1147.82px 1180.11px 1212.4px 1244.69px 1276.98px 1309.27px 1341.56px 1373.85px 1406.13px 1438.42px 1470.71px 1503px 1535.29px 1567.58px 1599.87px 1632.15px 1664.44px 1696.73px 1729.02px 1761.31px 1793.6px 1825.88px 1858.17px 1890.46px 1922.75px 1955.04px 1987.33px 2019.62px 2051.91px 2084.19px 2116.48px 2148.77px 2181.06px 2213.35px 2245.64px 2277.93px 2310.22px 2342.5px " y="379.967px 379.967px 379.967px 379.967px 379.967px 379.967px 379.967px 379.967px 379.967px 379.967px 379.967px 379.967px 379.967px 379.967px 379.967px 379.967px 379.967px 379.967px 379.967px 379.967px 379.967px 379.967px 379.967px 379.967px 379.967px 379.967px 379.967px 379.967px 379.967px 379.967px 379.967px 379.967px 379.967px 379.967px 379.967px 379.967px 379.967px 379.967px 379.967px 379.967px 379.967px 379.967px 379.967px 379.967px 379.967px 379.967px 379.967px 379.967px 379.967px 379.967px 379.967px 379.967px 379.967px 379.967px 379.967px 379.967px 379.967px 379.967px ">▄▌  ▄• ▄▌▄ •▄  ▄▄▄·     ▄ •▄ ▄▄▄  .▄▄ ·▄▄▄▄▄ ▪  ▄ •▄  ▐▄▄▄</tspan></text>
            </g>
            <g transform="matrix(1,0,0,0.96,0,17.3654)" style="fill: white;">
                <text x="469.763px" y="434.134px" style="fill: white; font-family:'CourierNewPSMT', 'Courier New', monospace;font-size:54.167px;">█<tspan x="502.052px 534.34px 566.629px 598.918px 631.206px 663.495px 695.783px 728.072px 760.361px 792.649px 824.938px 857.227px 889.515px 921.804px 954.092px 986.381px 1018.67px 1050.96px 1083.25px 1115.54px 1147.82px 1180.11px 1212.4px 1244.69px 1276.98px 1309.27px 1341.56px 1373.85px 1406.13px 1438.42px 1470.71px 1503px 1535.29px 1567.58px 1599.87px 1632.15px 1664.44px 1696.73px 1729.02px 1761.31px 1793.6px 1825.88px 1858.17px 1890.46px 1922.75px 1955.04px 1987.33px 2019.62px 2051.91px 2084.19px 2116.48px 2148.77px 2181.06px 2213.35px 2245.64px 2277.93px 2310.22px 2342.5px " y="434.134px 434.134px 434.134px 434.134px 434.134px 434.134px 434.134px 434.134px 434.134px 434.134px 434.134px 434.134px 434.134px 434.134px 434.134px 434.134px 434.134px 434.134px 434.134px 434.134px 434.134px 434.134px 434.134px 434.134px 434.134px 434.134px 434.134px 434.134px 434.134px 434.134px 434.134px 434.134px 434.134px 434.134px 434.134px 434.134px 434.134px 434.134px 434.134px 434.134px 434.134px 434.134px 434.134px 434.134px 434.134px 434.134px 434.134px 434.134px 434.134px 434.134px 434.134px 434.134px 434.134px 434.134px 434.134px 434.134px 434.134px 434.134px ">█•  █▪██▌█▌▄▌▪▐█ ▀█     █▌▄▌▪▀▄ █·▐█ ▀. •██  ██ █▌▄▌▪  ·██</tspan></text>
            </g>
            <g transform="matrix(1,0,0,0.96,0,19.532)" style="fill: white;">
                <text x="469.763px" y="488.301px" style="fill: white; font-family:'CourierNewPSMT', 'Courier New', monospace;font-size:54.167px;">█<tspan x="502.052px 534.34px 566.629px 598.918px 631.206px 663.495px 695.783px 728.072px 760.361px 792.649px 824.938px 857.227px 889.515px 921.804px 954.092px 986.381px 1018.67px 1050.96px 1083.25px 1115.54px 1147.82px 1180.11px 1212.4px 1244.69px 1276.98px 1309.27px 1341.56px 1373.85px 1406.13px 1438.42px 1470.71px 1503px 1535.29px 1567.58px 1599.87px 1632.15px 1664.44px 1696.73px 1729.02px 1761.31px 1793.6px 1825.88px 1858.17px 1890.46px 1922.75px 1955.04px 1987.33px 2019.62px 2051.91px 2084.19px 2116.48px 2148.77px 2181.06px 2213.35px 2245.64px 2277.93px 2310.22px 2342.5px " y="488.301px 488.301px 488.301px 488.301px 488.301px 488.301px 488.301px 488.301px 488.301px 488.301px 488.301px 488.301px 488.301px 488.301px 488.301px 488.301px 488.301px 488.301px 488.301px 488.301px 488.301px 488.301px 488.301px 488.301px 488.301px 488.301px 488.301px 488.301px 488.301px 488.301px 488.301px 488.301px 488.301px 488.301px 488.301px 488.301px 488.301px 488.301px 488.301px 488.301px 488.301px 488.301px 488.301px 488.301px 488.301px 488.301px 488.301px 488.301px 488.301px 488.301px 488.301px 488.301px 488.301px 488.301px 488.301px 488.301px 488.301px 488.301px ">█▪  █▌▐█▌▐▀▀▄·▄█▀▀█     ▐▀▀▄·▐▀▀▄ ▄▀▀▀█▄ ▐█.▪▐█·▐▀▀▄·▪▄ ██</tspan></text>
            </g>
            <g transform="matrix(1,0,0,0.96,0,21.6987)" style=": white;">
                <text x="469.763px" y="542.467px" style="fill: white; font-family:'CourierNewPSMT', 'Courier New', monospace;font-size:54.167px;">▐<tspan x="502.052px 534.34px 566.629px 598.918px 631.206px 663.495px 695.783px 728.072px 760.361px 792.649px 824.938px 857.227px 889.515px 921.804px 954.092px 986.381px 1018.67px 1050.96px 1083.25px 1115.54px 1147.82px 1180.11px 1212.4px 1244.69px 1276.98px 1309.27px 1341.56px 1373.85px 1406.13px 1438.42px 1470.71px 1503px 1535.29px 1567.58px 1599.87px 1632.15px 1664.44px 1696.73px 1729.02px 1761.31px 1793.6px 1825.88px 1858.17px 1890.46px 1922.75px 1955.04px 1987.33px 2019.62px 2051.91px 2084.19px 2116.48px 2148.77px 2181.06px 2213.35px 2245.64px 2277.93px 2310.22px 2342.5px " y="542.467px 542.467px 542.467px 542.467px 542.467px 542.467px 542.467px 542.467px 542.467px 542.467px 542.467px 542.467px 542.467px 542.467px 542.467px 542.467px 542.467px 542.467px 542.467px 542.467px 542.467px 542.467px 542.467px 542.467px 542.467px 542.467px 542.467px 542.467px 542.467px 542.467px 542.467px 542.467px 542.467px 542.467px 542.467px 542.467px 542.467px 542.467px 542.467px 542.467px 542.467px 542.467px 542.467px 542.467px 542.467px 542.467px 542.467px 542.467px 542.467px 542.467px 542.467px 542.467px 542.467px 542.467px 542.467px 542.467px 542.467px 542.467px ">█▌▐▌▐█▄█▌▐█.█▌▐█ ▪▐▌    ▐█.█▌▐█•█▌▐█▄▪▐█ ▐█▌·▐█▌▐█.█▌▐▌▐█▌</tspan></text>
            </g>
            <g transform="matrix(1,0,0,0.96,0,23.8654)" style="fill: white;">
                <text x="469.763px" y="596.634px" style="fill: white; font-family:'CourierNewPSMT', 'Courier New', monospace;font-size:54.167px;">.<tspan x="502.052px 534.34px 566.629px 598.918px 631.206px 663.495px 695.783px 728.072px 760.361px 792.649px 824.938px 857.227px 889.515px 921.804px 954.092px 986.381px 1018.67px 1050.96px 1083.25px 1115.54px 1147.82px 1180.11px 1212.4px 1244.69px 1276.98px 1309.27px 1341.56px 1373.85px 1406.13px 1438.42px 1470.71px 1503px 1535.29px 1567.58px 1599.87px 1632.15px 1664.44px 1696.73px 1729.02px 1761.31px 1793.6px 1825.88px 1858.17px 1890.46px 1922.75px 1955.04px 1987.33px 2019.62px 2051.91px 2084.19px 2116.48px 2148.77px 2181.06px 2213.35px 2245.64px 2277.93px 2310.22px 2342.5px " y="596.634px 596.634px 596.634px 596.634px 596.634px 596.634px 596.634px 596.634px 596.634px 596.634px 596.634px 596.634px 596.634px 596.634px 596.634px 596.634px 596.634px 596.634px 596.634px 596.634px 596.634px 596.634px 596.634px 596.634px 596.634px 596.634px 596.634px 596.634px 596.634px 596.634px 596.634px 596.634px 596.634px 596.634px 596.634px 596.634px 596.634px 596.634px 596.634px 596.634px 596.634px 596.634px 596.634px 596.634px 596.634px 596.634px 596.634px 596.634px 596.634px 596.634px 596.634px 596.634px 596.634px 596.634px 596.634px 596.634px 596.634px 596.634px ">▀▀▀  ▀▀▀ ·▀  ▀ ▀  ▀     ·▀  ▀.▀  ▀ ▀▀▀▀  ▀▀▀ ▀▀▀·▀  ▀ ▀▀▀•</tspan></text>
            </g>
        </g>
    </g>
</svg>
