<?xml version="1.0" encoding="UTF-8" standalone="no"?>
<!DOCTYPE svg PUBLIC "-//W3C//DTD SVG 1.1//EN" "http://www.w3.org/Graphics/SVG/1.1/DTD/svg11.dtd">
<svg width="100%" height="100%" viewBox="0 0 409 249" version="1.1" xmlns="http://www.w3.org/2000/svg" xmlns:xlink="http://www.w3.org/1999/xlink" xml:space="preserve" xmlns:serif="http://www.serif.com/" style="fill-rule:evenodd;clip-rule:evenodd;stroke-linejoin:round;stroke-miterlimit:2;">
    <g transform="matrix(1,0,0,1,-319,-30.4569)">
        <g transform="matrix(-1.19081,0,0,-0.866322,1184.58,523.443)">
            <path d="M596.613,298.4C587.05,309.478 579.148,315.261 566.684,320.306C547.471,328.082 533.763,339.674 523.76,356.605C515.999,369.744 502.799,378.097 474.557,387.747C463.884,391.394 449.231,397.175 441.996,400.594C423.784,409.2 396.635,434.129 390.311,448.052C383.779,462.431 383.261,475.412 389.219,475.412C392.173,475.412 393.518,472.448 393.518,465.94C393.518,441.824 422.628,416.189 470.718,397.952C508.407,383.66 521.586,375.9 528.847,363.723C539.448,345.946 549.234,337.408 569.885,327.917C589.834,318.75 614.248,296.367 614.248,287.245C614.248,280.287 609.849,283.07 596.613,298.4M641.211,296.965C636.216,313.415 626.424,335.406 618.556,347.847C609.542,362.1 590.766,380.814 585.482,380.814C583.96,380.814 582.715,375.746 582.715,369.552C582.715,358.021 577.065,349.281 569.61,349.281C563.678,349.281 554.049,359.819 554.049,366.311C554.049,369.372 552.815,372.638 551.307,373.57C546.759,376.381 551.057,382.904 560.46,387.458L569.323,391.75L552.369,393.459C469.337,401.827 459.626,408.89 445.02,471.53C441.172,488.032 440.171,497.412 442.057,499.297C445.473,502.713 450.821,490.338 450.911,478.809C451.037,462.793 464.63,431.358 476.092,420.576C485.565,411.665 490.203,409.697 508.417,406.856C576.31,396.267 587.885,392.057 610.288,369.81C625.899,354.307 644.18,321.26 647.413,302.698C649.348,291.588 644.269,286.893 641.211,296.965M575.748,364.82C578.656,376.407 576.174,382.247 568.343,382.247C562.153,382.247 561.323,381.116 562.034,373.647C562.484,368.917 563.411,363.435 564.094,361.464C566.222,355.322 573.92,357.539 575.748,364.82M676.902,328.498C657.209,349.675 649.789,360.683 641.689,380.739C633.281,401.557 619.146,418.08 609.744,418.08C597.175,418.08 585.582,421.752 585.582,425.734C585.582,429.783 588.603,429.698 614.53,424.92C625.953,422.816 638.366,407.708 651.473,379.956C659.855,362.209 668,350.119 678.95,339.169C693.05,325.069 698.54,314.881 692.039,314.881C690.678,314.881 683.866,321.009 676.902,328.498M699.048,348.564C697.864,349.747 692.625,359.953 687.407,371.245C678.687,390.115 663.943,407.7 640.329,427.396C636.805,430.335 634.314,435.79 634.314,440.568C634.314,467.567 673.586,461.063 695.873,430.373C705.654,416.904 708.846,415.358 708.846,424.087C708.846,437.485 685.072,459.187 662.244,466.626C654.904,469.019 648.78,474.052 643.014,482.432C638.361,489.195 628.897,501.356 621.982,509.457C609.355,524.251 598.192,551.781 600.326,562.864C602.065,571.892 606.984,568.216 609.005,556.378C612.083,538.35 618.973,524.674 633.704,507.355C641.272,498.458 649.655,487.691 652.334,483.429C655.472,478.436 660.719,475.02 667.087,473.826C678.907,471.608 709.23,445.327 714.417,432.804C719.377,420.829 717.385,411.109 709.749,410.021C705.036,409.35 700.778,412.784 692.549,423.893C680.642,439.968 665.297,449.612 651.628,449.612C643.964,449.612 642.914,448.63 642.914,441.464C642.914,435.109 645.098,432.139 652.834,427.973C658.29,425.035 667.191,417.323 672.614,410.836C685.645,395.246 710.234,346.414 705.053,346.414C702.935,346.414 700.233,347.382 699.048,348.564M539.423,413.165C530.07,419.456 529.562,420.739 526.664,445.414C521.052,493.196 509.201,515.544 489.477,515.544C481.116,515.544 479.293,516.521 480.109,520.561C481.424,527.081 497.793,525.809 508.232,518.376C517.725,511.616 531.282,478.653 532.975,458.212C535.534,427.323 536.681,423.831 546.169,418.061C563.094,407.768 567.25,421.801 556.98,454.559C552.807,467.87 551.796,476.976 553.003,490.392C554.754,509.857 555.847,507.365 531.833,538.662C522.689,550.579 519.651,561.41 525.454,561.41C527.069,561.41 529.52,558.443 530.899,554.816C532.278,551.189 539.393,541.207 546.71,532.634C562.184,514.506 563.976,509.165 561.765,487.749C560.592,476.374 561.684,466.982 565.654,454.321C572.366,432.912 572.682,421.401 566.786,412.984C561.074,404.83 551.723,404.891 539.423,413.165M482.352,430.263C471.611,447.879 477.512,472.545 492.467,472.545C510.357,472.545 520.344,440.607 507.481,424.529C505.904,422.559 500.883,420.946 496.323,420.946C490.046,420.946 486.653,423.209 482.352,430.263M501.876,430.119C507.679,435.922 506.055,454.607 499.147,461.515C493.202,467.46 492.837,467.492 489.114,462.4C481.777,452.367 485.874,426.679 494.811,426.679C496.805,426.679 499.984,428.227 501.876,430.119M415.223,439.784C410.047,444.96 409.099,467.031 413.686,475.6C417.604,482.922 422.683,482.602 430.241,474.557C442.97,461.007 440.691,435.279 426.76,435.279C422.892,435.279 417.7,437.306 415.223,439.784M430.195,452.7C431.242,464.862 423.915,476.402 419.416,469.679C415.427,463.717 415.733,448.611 419.927,444.417C425.412,438.932 429.279,442.052 430.195,452.7M618.445,444.596C623.16,459.808 623.189,464.306 618.66,477.939C614.436,490.657 611.746,493.678 595.506,503.934C574.357,517.291 568.264,526.871 567.492,547.987C566.916,563.728 572.144,571.734 573.449,557.11C575.508,534.047 580.222,524.502 593.885,515.735C610.418,505.125 621.549,493.65 625.532,483.108C629.421,472.815 629.466,450.89 625.613,443.691C621.436,435.885 615.959,436.576 618.445,444.596M584.208,447.859C576.633,455.434 572.507,471.483 575.288,482.559C576.832,488.715 578.717,489.745 588.437,489.745C601.753,489.745 608.117,482.443 610.539,464.387C611.735,455.471 610.791,451.889 605.981,447.078C598.125,439.223 592.648,439.419 584.208,447.859M602.202,462.685C603.159,475.686 595.244,486.133 586.871,482.92C583.113,481.478 582.601,478.78 584.222,468.956C586.564,454.752 590.408,449.023 596.784,450.231C599.881,450.817 601.622,454.822 602.202,462.685M712.579,450.329C709.353,453.876 703.183,462.215 698.867,468.859C691.302,480.506 691.094,481.853 693.045,506.51C694.456,524.334 694.036,534.012 691.659,538.454C687.24,546.71 691.987,552.147 697.644,545.309C700.552,541.793 701.679,531.95 701.679,510.071C701.679,477.981 705.079,467.698 720.22,453.996C723.424,451.096 726.046,447.634 726.046,446.301C726.046,441.645 718.396,443.933 712.579,450.329M667.443,481.783C661.956,489.616 661.905,497.542 667.28,506.945C669.681,511.144 671.419,522.122 671.478,533.461C671.534,544.103 672.732,552.81 674.14,552.81C681.968,552.81 682.367,519.604 674.719,504.613C669.877,495.12 669.699,492.863 673.148,484.66C677.597,474.079 674.081,472.305 667.443,481.783M634.395,520.392C629.549,526.553 628.497,531.315 629.171,544.042C629.997,559.656 630.199,559.995 639.154,560.862C646.392,561.563 649.319,560.184 653.217,554.235C660.29,543.439 660.232,521.953 653.116,516.748C645.132,510.908 641.263,511.661 634.395,520.392M650.785,532.768C651.614,544.562 645.296,554.338 638.523,551.739C633.962,549.989 634.096,543.735 639.073,526.131C641.651,517.012 650.009,521.749 650.785,532.768" style="fill:none;fill-rule:nonzero;stroke:rgb(23,23,23);stroke-width:1.92px;"/>
        </g>
    </g>
</svg>
